<?xml version="1.0" encoding="UTF-8"?>
<svg xmlns="http://www.w3.org/2000/svg" viewBox="0 0 500 80" width="500" height="80">
  <defs>
    <style>
      .field-label { 
        font-family: 'Courier New', monospace; 
        font-size: 9px; 
        fill: #333333;
        font-weight: 500;
      }
      .bit-label { 
        font-family: 'Courier New', monospace; 
        font-size: 7px; 
        fill: #888888;
        text-anchor: middle; 
      }
      .mnemonic { 
        font-family: 'Helvetica Neue', Arial, sans-serif; 
        font-size: 12px; 
        font-weight: 600; 
        fill: #333333;
      }
      .field-rect { 
        stroke: #ffffff; 
        stroke-width: 1.5px; 
      }
      .border-line {
        stroke: #666666;
        stroke-width: 1.5px;
      }
      .part-label {
        font-family: 'Helvetica Neue', Arial, sans-serif;
        font-size: 10px;
        fill: #888888;
        font-weight: 500;
      }
    </style>
  </defs>
  
  <!-- Mnemonic label -->
  <text x="10" y="18" class="mnemonic">C.BSTART.STD</text>
  <text x="10" y="74" class="bit-label" fill="#888888">16-bit</text>
  <text x="73.28125" y="14" class="bit-label">15</text>
  <text x="126.40625" y="14" class="bit-label">13</text>
  <text x="179.53125" y="14" class="bit-label">11</text>
  <text x="232.65625" y="14" class="bit-label">9</text>
  <text x="285.78125" y="14" class="bit-label">7</text>
  <text x="338.90625" y="14" class="bit-label">5</text>
  <text x="392.03125" y="14" class="bit-label">3</text>
  <text x="445.15625" y="14" class="bit-label">1</text>
  <rect x="60" y="24.375" width="53.125" height="26.25" fill="#e8e8e8" class="field-rect" rx="2" ry="2"/>
  <text x="86.5625" y="39.5" class="field-label" text-anchor="middle">2'b00</text>
  <rect x="113.125" y="24.375" width="79.6875" height="26.25" fill="#e8e8e8" class="field-rect" rx="2" ry="2"/>
  <text x="152.96875" y="39.5" class="field-label" text-anchor="middle">BrType</text>
  <rect x="192.8125" y="24.375" width="132.8125" height="26.25" fill="#e8e8e8" class="field-rect" rx="2" ry="2"/>
  <text x="259.21875" y="39.5" class="field-label" text-anchor="middle">5'b0_0000</text>
  <rect x="325.625" y="24.375" width="53.125" height="26.25" fill="#e8e8e8" class="field-rect" rx="2" ry="2"/>
  <text x="352.1875" y="39.5" class="field-label" text-anchor="middle">2'b00</text>
  <rect x="378.75" y="24.375" width="79.6875" height="26.25" fill="#e8e8e8" class="field-rect" rx="2" ry="2"/>
  <text x="418.59375" y="39.5" class="field-label" text-anchor="middle">3'b000</text>
  <rect x="458.4375" y="24.375" width="26.5625" height="26.25" fill="#e8e8e8" class="field-rect" rx="2" ry="2"/>
  <text x="471.71875" y="39.5" class="field-label" text-anchor="middle">0</text>
  
  <!-- Border lines -->
  <line x1="60" y1="20" x2="485" y2="20" class="border-line"/>
  <line x1="60" y1="55" x2="485" y2="55" class="border-line"/>
</svg>