<?xml version="1.0" encoding="UTF-8"?>
<svg xmlns="http://www.w3.org/2000/svg" viewBox="0 0 1000 140" width="1000" height="140">
  <defs>
    <style>
      .field-label { 
        font-family: 'Courier New', monospace; 
        font-size: 11px; 
        fill: #333333;
        font-weight: 500;
      }
      .bit-label { 
        font-family: 'Courier New', monospace; 
        font-size: 9px; 
        fill: #888888;
        text-anchor: middle; 
      }
      .mnemonic { 
        font-family: 'Helvetica Neue', Arial, sans-serif; 
        font-size: 14px; 
        font-weight: 600; 
        fill: #333333;
      }
      .field-rect { 
        stroke: #ffffff; 
        stroke-width: 1.5px; 
      }
      .border-line {
        stroke: #666666;
        stroke-width: 1.5px;
      }
      .part-label {
        font-family: 'Helvetica Neue', Arial, sans-serif;
        font-size: 10px;
        fill: #888888;
        font-weight: 500;
      }
    </style>
  </defs>
  
  <!-- Mnemonic label -->
  <text x="10" y="18" class="mnemonic">V.LD.ADD</text>
  <text x="10" y="134" class="bit-label" fill="#888888">64-bit</text>
  <!-- Part 1: bits 63-32 -->
  <text x="95" y="50.25" class="part-label" text-anchor="end">63-32</text>
  
  <!-- Bit position labels for Part 1 (every 4 bits) -->
  <text x="113.671875" y="24" class="bit-label">63</text>
  <text x="223.046875" y="24" class="bit-label">59</text>
  <text x="332.421875" y="24" class="bit-label">55</text>
  <text x="441.796875" y="24" class="bit-label">51</text>
  <text x="551.171875" y="24" class="bit-label">47</text>
  <text x="660.546875" y="24" class="bit-label">43</text>
  <text x="769.921875" y="24" class="bit-label">39</text>
  <text x="879.296875" y="24" class="bit-label">35</text>
  <line x1="100" y1="30" x2="975" y2="30" class="border-line"/>
  <line x1="100" y1="62.5" x2="975" y2="62.5" class="border-line"/>
  
  <!-- Part 2: bits 31-0 -->
  <text x="95" y="82.75" class="part-label" text-anchor="end">31-0</text>
  
  <!-- Bit position labels for Part 2 -->
  <text x="113.671875" y="56.5" class="bit-label">31</text>
  <text x="223.046875" y="56.5" class="bit-label">27</text>
  <text x="332.421875" y="56.5" class="bit-label">23</text>
  <text x="441.796875" y="56.5" class="bit-label">19</text>
  <text x="551.171875" y="56.5" class="bit-label">15</text>
  <text x="660.546875" y="56.5" class="bit-label">11</text>
  <text x="769.921875" y="56.5" class="bit-label">7</text>
  <text x="879.296875" y="56.5" class="bit-label">3</text>
  <rect x="100" y="67.375" width="136.71875" height="22.75" fill="#e8e8e8" class="field-rect" rx="2" ry="2"/>
  <text x="168.359375" y="81.75" class="field-label" text-anchor="middle">5'b0_0000</text>
  <rect x="236.71875" y="67.375" width="27.34375" height="22.75" fill="#e8e8e8" class="field-rect" rx="2" ry="2"/>
  <text x="250.390625" y="81.75" class="field-label" text-anchor="middle">aq</text>
  <rect x="264.0625" y="67.375" width="27.34375" height="22.75" fill="#e8e8e8" class="field-rect" rx="2" ry="2"/>
  <text x="277.734375" y="81.75" class="field-label" text-anchor="middle">rl</text>
  <rect x="291.40625" y="67.375" width="136.71875" height="22.75" fill="#e8e8e8" class="field-rect" rx="2" ry="2"/>
  <text x="359.765625" y="81.75" class="field-label" text-anchor="middle">SrcR[4:0]</text>
  <rect x="428.125" y="67.375" width="136.71875" height="22.75" fill="#e8e8e8" class="field-rect" rx="2" ry="2"/>
  <text x="496.484375" y="81.75" class="field-label" text-anchor="middle">SrcL[4:0]</text>
  <rect x="564.84375" y="67.375" width="27.34375" height="22.75" fill="#e8e8e8" class="field-rect" rx="2" ry="2"/>
  <text x="578.515625" y="81.75" class="field-label" text-anchor="middle">0</text>
  <rect x="592.1875" y="67.375" width="27.34375" height="22.75" fill="#e8e8e8" class="field-rect" rx="2" ry="2"/>
  <text x="605.859375" y="81.75" class="field-label" text-anchor="middle">0</text>
  <rect x="619.53125" y="67.375" width="27.34375" height="22.75" fill="#e8e8e8" class="field-rect" rx="2" ry="2"/>
  <text x="633.203125" y="81.75" class="field-label" text-anchor="middle">0</text>
  <rect x="646.875" y="67.375" width="136.71875" height="22.75" fill="#e8e8e8" class="field-rect" rx="2" ry="2"/>
  <text x="715.234375" y="81.75" class="field-label" text-anchor="middle">RegDst[4:0]</text>
  <rect x="783.59375" y="67.375" width="82.03125" height="22.75" fill="#e8e8e8" class="field-rect" rx="2" ry="2"/>
  <text x="824.609375" y="81.75" class="field-label" text-anchor="middle">3'b000</text>
  <rect x="865.625" y="67.375" width="82.03125" height="22.75" fill="#e8e8e8" class="field-rect" rx="2" ry="2"/>
  <text x="906.640625" y="81.75" class="field-label" text-anchor="middle">3'b101</text>
  <rect x="947.65625" y="67.375" width="27.34375" height="22.75" fill="#e8e8e8" class="field-rect" rx="2" ry="2"/>
  <text x="961.328125" y="81.75" class="field-label" text-anchor="middle">1</text>
  <line x1="100" y1="62.5" x2="975" y2="62.5" class="border-line"/>
  <line x1="100" y1="95" x2="975" y2="95" class="border-line"/>
</svg>