<?xml version="1.0" encoding="UTF-8"?>
<svg xmlns="http://www.w3.org/2000/svg" viewBox="0 0 1000 120" width="1000" height="120">
  <defs>
    <style>
      .field-label { 
        font-family: 'Courier New', monospace; 
        font-size: 11px; 
        fill: #333333;
        font-weight: 500;
      }
      .bit-label { 
        font-family: 'Courier New', monospace; 
        font-size: 9px; 
        fill: #888888;
        text-anchor: middle; 
      }
      .mnemonic { 
        font-family: 'Helvetica Neue', Arial, sans-serif; 
        font-size: 14px; 
        font-weight: 600; 
        fill: #333333;
      }
      .field-rect { 
        stroke: #ffffff; 
        stroke-width: 1.5px; 
      }
      .border-line {
        stroke: #666666;
        stroke-width: 1.5px;
      }
      .part-label {
        font-family: 'Helvetica Neue', Arial, sans-serif;
        font-size: 10px;
        fill: #888888;
        font-weight: 500;
      }
    </style>
  </defs>
  
  <!-- Mnemonic label -->
  <text x="10" y="18" class="mnemonic">HL.CMP.GEUI</text>
  <text x="10" y="114" class="bit-label" fill="#888888">48-bit</text>
  <text x="109.11458333333333" y="24" class="bit-label">47</text>
  <text x="182.03125" y="24" class="bit-label">43</text>
  <text x="254.94791666666669" y="24" class="bit-label">39</text>
  <text x="327.86458333333337" y="24" class="bit-label">35</text>
  <text x="400.78125" y="24" class="bit-label">31</text>
  <text x="473.6979166666667" y="24" class="bit-label">27</text>
  <text x="546.6145833333334" y="24" class="bit-label">23</text>
  <text x="619.53125" y="24" class="bit-label">19</text>
  <text x="692.4479166666667" y="24" class="bit-label">15</text>
  <text x="765.3645833333334" y="24" class="bit-label">11</text>
  <text x="838.28125" y="24" class="bit-label">7</text>
  <text x="911.1979166666667" y="24" class="bit-label">3</text>
  <rect x="100" y="36.25" width="218.75" height="37.5" fill="#ffe0b9" class="field-rect" rx="3" ry="3"/>
  <text x="209.375" y="59" class="field-label" text-anchor="middle">uimm24[11:0]</text>
  <rect x="318.75" y="36.25" width="91.14583333333337" height="37.5" fill="#ccfdfe" class="field-rect" rx="3" ry="3"/>
  <text x="364.3229166666667" y="59" class="field-label" text-anchor="middle">SrcL</text>
  <rect x="409.89583333333337" y="36.25" width="54.6875" height="37.5" fill="#e8e8e8" class="field-rect" rx="3" ry="3"/>
  <text x="437.23958333333337" y="59" class="field-label" text-anchor="middle">3'b111</text>
  <rect x="464.58333333333337" y="36.25" width="91.14583333333337" height="37.5" fill="#cdfdc5" class="field-rect" rx="3" ry="3"/>
  <text x="510.15625000000006" y="59" class="field-label" text-anchor="middle">RegDst</text>
  <rect x="555.7291666666667" y="36.25" width="54.6875" height="37.5" fill="#e8e8e8" class="field-rect" rx="3" ry="3"/>
  <text x="583.0729166666667" y="59" class="field-label" text-anchor="middle">3'b101</text>
  <rect x="610.4166666666667" y="36.25" width="54.6875" height="37.5" fill="#e8e8e8" class="field-rect" rx="3" ry="3"/>
  <text x="637.7604166666667" y="59" class="field-label" text-anchor="middle">3'b010</text>
  <rect x="665.1041666666667" y="36.25" width="18.22916666666663" height="37.5" fill="#e8e8e8" class="field-rect" rx="3" ry="3"/>
  <rect x="683.3333333333334" y="36.25" width="218.75" height="37.5" fill="#ffe0b9" class="field-rect" rx="3" ry="3"/>
  <text x="792.7083333333334" y="59" class="field-label" text-anchor="middle">uimm24[23:12]</text>
  <rect x="902.0833333333334" y="36.25" width="54.6875" height="37.5" fill="#e8e8e8" class="field-rect" rx="3" ry="3"/>
  <text x="929.4270833333334" y="59" class="field-label" text-anchor="middle">3'b111</text>
  <rect x="956.7708333333334" y="36.25" width="18.22916666666663" height="37.5" fill="#e8e8e8" class="field-rect" rx="3" ry="3"/>
  
  <!-- Border lines -->
  <line x1="100" y1="30" x2="975" y2="30" class="border-line"/>
  <line x1="100" y1="80" x2="975" y2="80" class="border-line"/>
</svg>