<?xml version="1.0" encoding="UTF-8"?>
<svg xmlns="http://www.w3.org/2000/svg" viewBox="0 0 800 100" width="800" height="100">
  <defs>
    <style>
      .field-label { 
        font-family: 'Courier New', monospace; 
        font-size: 11px; 
        fill: #333333;
        font-weight: 500;
      }
      .bit-label { 
        font-family: 'Courier New', monospace; 
        font-size: 9px; 
        fill: #888888;
        text-anchor: middle; 
      }
      .mnemonic { 
        font-family: 'Helvetica Neue', Arial, sans-serif; 
        font-size: 14px; 
        font-weight: 600; 
        fill: #333333;
      }
      .field-rect { 
        stroke: #ffffff; 
        stroke-width: 1.5px; 
      }
      .border-line {
        stroke: #666666;
        stroke-width: 1.5px;
      }
      .part-label {
        font-family: 'Helvetica Neue', Arial, sans-serif;
        font-size: 10px;
        fill: #888888;
        font-weight: 500;
      }
    </style>
  </defs>
  
  <!-- Mnemonic label -->
  <text x="10" y="18" class="mnemonic">FMUL</text>
  <text x="10" y="94" class="bit-label" fill="#888888">32-bit</text>
  <text x="90.9375" y="19" class="bit-label">31</text>
  <text x="178.4375" y="19" class="bit-label">27</text>
  <text x="265.9375" y="19" class="bit-label">23</text>
  <text x="353.4375" y="19" class="bit-label">19</text>
  <text x="440.9375" y="19" class="bit-label">15</text>
  <text x="528.4375" y="19" class="bit-label">11</text>
  <text x="615.9375" y="19" class="bit-label">7</text>
  <text x="703.4375" y="19" class="bit-label">3</text>
  <rect x="80" y="29" width="109.375" height="32" fill="#e8e8e8" class="field-rect" rx="3" ry="3"/>
  <text x="134.6875" y="49" class="field-label" text-anchor="middle">5'b0_0000</text>
  <rect x="189.375" y="29" width="43.75" height="32" fill="#e8e8e8" class="field-rect" rx="3" ry="3"/>
  <text x="211.25" y="49" class="field-label" text-anchor="middle">SrcType</text>
  <rect x="233.125" y="29" width="109.375" height="32" fill="#ccfdfe" class="field-rect" rx="3" ry="3"/>
  <text x="287.8125" y="49" class="field-label" text-anchor="middle">SrcR</text>
  <rect x="342.5" y="29" width="109.375" height="32" fill="#ccfdfe" class="field-rect" rx="3" ry="3"/>
  <text x="397.1875" y="49" class="field-label" text-anchor="middle">SrcL</text>
  <rect x="451.875" y="29" width="65.625" height="32" fill="#e8e8e8" class="field-rect" rx="3" ry="3"/>
  <text x="484.6875" y="49" class="field-label" text-anchor="middle">3'b010</text>
  <rect x="517.5" y="29" width="109.375" height="32" fill="#cdfdc5" class="field-rect" rx="3" ry="3"/>
  <text x="572.1875" y="49" class="field-label" text-anchor="middle">RegDst</text>
  <rect x="626.875" y="29" width="65.625" height="32" fill="#e8e8e8" class="field-rect" rx="3" ry="3"/>
  <text x="659.6875" y="49" class="field-label" text-anchor="middle">3'b100</text>
  <rect x="692.5" y="29" width="65.625" height="32" fill="#e8e8e8" class="field-rect" rx="3" ry="3"/>
  <text x="725.3125" y="49" class="field-label" text-anchor="middle">3'b101</text>
  <rect x="758.125" y="29" width="21.875" height="32" fill="#e8e8e8" class="field-rect" rx="3" ry="3"/>
  
  <!-- Border lines -->
  <line x1="80" y1="25" x2="780" y2="25" class="border-line"/>
  <line x1="80" y1="65" x2="780" y2="65" class="border-line"/>
</svg>